<svg xmlns="http://www.w3.org/2000/svg" viewBox="0 0 960 300" width="960" height="300" shape-rendering="crispEdges" role="img" aria-label="Mapa de proyectos: Monitor meteorológico MetGeo Concepción"><title>Mapa de proyectos: Monitor meteorológico MetGeo Concepción</title><style>
.route{animation:dash 1s linear infinite}@keyframes dash{to{stroke-dashoffset:-20}}
.wave{animation:wave 1.4s steps(2) infinite}@keyframes wave{50%{transform:translateX(6px)}}
.blink{animation:blink 1s steps(1) infinite}@keyframes blink{50%{opacity:.2}}
@media (prefers-reduced-motion:reduce){*{animation:none!important}}
</style><rect x="0" y="0" width="960" height="300" fill="#5e3b1c"/><rect x="4" y="4" width="952" height="292" fill="#c9a66b"/><rect x="8" y="8" width="944" height="284" fill="#2f7fb5"/><g class="wave" style="animation-delay:0.00s"><rect x="60" y="63" width="3" height="3" fill="#8fd3f4"/><rect x="69" y="63" width="6" height="3" fill="#8fd3f4"/><rect x="81" y="63" width="3" height="3" fill="#8fd3f4"/><rect x="63" y="60" width="6" height="3" fill="#8fd3f4"/><rect x="75" y="60" width="6" height="3" fill="#8fd3f4"/></g><g class="wave" style="animation-delay:0.35s"><rect x="250" y="203" width="3" height="3" fill="#8fd3f4"/><rect x="259" y="203" width="6" height="3" fill="#8fd3f4"/><rect x="271" y="203" width="3" height="3" fill="#8fd3f4"/><rect x="253" y="200" width="6" height="3" fill="#8fd3f4"/><rect x="265" y="200" width="6" height="3" fill="#8fd3f4"/></g><g class="wave" style="animation-delay:0.70s"><rect x="470" y="253" width="3" height="3" fill="#8fd3f4"/><rect x="479" y="253" width="6" height="3" fill="#8fd3f4"/><rect x="491" y="253" width="3" height="3" fill="#8fd3f4"/><rect x="473" y="250" width="6" height="3" fill="#8fd3f4"/><rect x="485" y="250" width="6" height="3" fill="#8fd3f4"/></g><g class="wave" style="animation-delay:1.05s"><rect x="700" y="43" width="3" height="3" fill="#8fd3f4"/><rect x="709" y="43" width="6" height="3" fill="#8fd3f4"/><rect x="721" y="43" width="3" height="3" fill="#8fd3f4"/><rect x="703" y="40" width="6" height="3" fill="#8fd3f4"/><rect x="715" y="40" width="6" height="3" fill="#8fd3f4"/></g><g class="wave" style="animation-delay:1.40s"><rect x="520" y="113" width="3" height="3" fill="#8fd3f4"/><rect x="529" y="113" width="6" height="3" fill="#8fd3f4"/><rect x="541" y="113" width="3" height="3" fill="#8fd3f4"/><rect x="523" y="110" width="6" height="3" fill="#8fd3f4"/><rect x="535" y="110" width="6" height="3" fill="#8fd3f4"/></g><g class="wave" style="animation-delay:1.75s"><rect x="900" y="233" width="3" height="3" fill="#8fd3f4"/><rect x="909" y="233" width="6" height="3" fill="#8fd3f4"/><rect x="921" y="233" width="3" height="3" fill="#8fd3f4"/><rect x="903" y="230" width="6" height="3" fill="#8fd3f4"/><rect x="915" y="230" width="6" height="3" fill="#8fd3f4"/></g><g class="wave" style="animation-delay:2.10s"><rect x="180" y="253" width="3" height="3" fill="#8fd3f4"/><rect x="189" y="253" width="6" height="3" fill="#8fd3f4"/><rect x="201" y="253" width="3" height="3" fill="#8fd3f4"/><rect x="183" y="250" width="6" height="3" fill="#8fd3f4"/><rect x="195" y="250" width="6" height="3" fill="#8fd3f4"/></g><g class="wave" style="animation-delay:2.45s"><rect x="780" y="193" width="3" height="3" fill="#8fd3f4"/><rect x="789" y="193" width="6" height="3" fill="#8fd3f4"/><rect x="801" y="193" width="3" height="3" fill="#8fd3f4"/><rect x="783" y="190" width="6" height="3" fill="#8fd3f4"/><rect x="795" y="190" width="6" height="3" fill="#8fd3f4"/></g><path d="M70,230 C200,120 320,260 430,190 S540,90 590,112" fill="none" stroke="#5e3b1c" stroke-width="4" opacity=".35" shape-rendering="auto"/><path class="route" d="M70,230 C200,120 320,260 430,190 S540,90 590,112" fill="none" stroke="#fff6d5" stroke-width="4" stroke-dasharray="10 10" shape-rendering="auto"/><rect x="600" y="96" width="4" height="4" fill="#e8c77a"/><rect x="576" y="100" width="52" height="4" fill="#e8c77a"/><rect x="568" y="104" width="20" height="4" fill="#e8c77a"/><rect x="616" y="104" width="20" height="4" fill="#e8c77a"/><rect x="560" y="108" width="16" height="4" fill="#e8c77a"/><rect x="628" y="108" width="16" height="4" fill="#e8c77a"/><rect x="556" y="112" width="16" height="4" fill="#e8c77a"/><rect x="632" y="112" width="16" height="4" fill="#e8c77a"/><rect x="556" y="116" width="12" height="4" fill="#e8c77a"/><rect x="636" y="116" width="12" height="4" fill="#e8c77a"/><rect x="552" y="120" width="16" height="4" fill="#e8c77a"/><rect x="636" y="120" width="16" height="4" fill="#e8c77a"/><rect x="556" y="124" width="12" height="4" fill="#e8c77a"/><rect x="636" y="124" width="12" height="4" fill="#e8c77a"/><rect x="556" y="128" width="16" height="4" fill="#e8c77a"/><rect x="632" y="128" width="16" height="4" fill="#e8c77a"/><rect x="560" y="132" width="16" height="4" fill="#e8c77a"/><rect x="628" y="132" width="16" height="4" fill="#e8c77a"/><rect x="568" y="136" width="20" height="4" fill="#e8c77a"/><rect x="616" y="136" width="20" height="4" fill="#e8c77a"/><rect x="576" y="140" width="52" height="4" fill="#e8c77a"/><rect x="600" y="144" width="4" height="4" fill="#e8c77a"/><rect x="588" y="104" width="28" height="4" fill="#4f9a4a"/><rect x="576" y="108" width="52" height="4" fill="#4f9a4a"/><rect x="572" y="112" width="60" height="4" fill="#4f9a4a"/><rect x="568" y="116" width="68" height="4" fill="#4f9a4a"/><rect x="568" y="120" width="68" height="4" fill="#4f9a4a"/><rect x="568" y="124" width="68" height="4" fill="#4f9a4a"/><rect x="572" y="128" width="60" height="4" fill="#4f9a4a"/><rect x="576" y="132" width="52" height="4" fill="#4f9a4a"/><rect x="588" y="136" width="28" height="4" fill="#4f9a4a"/><rect x="590" y="80" width="8" height="4" fill="#3f9a4a"/><rect x="602" y="80" width="8" height="4" fill="#3f9a4a"/><rect x="586" y="84" width="4" height="4" fill="#3f9a4a"/><rect x="594" y="84" width="4" height="4" fill="#3f9a4a"/><rect x="602" y="84" width="4" height="4" fill="#3f9a4a"/><rect x="610" y="84" width="4" height="4" fill="#3f9a4a"/><rect x="598" y="84" width="4" height="4" fill="#2d7a38"/><rect x="598" y="88" width="4" height="4" fill="#7a4a22"/><rect x="598" y="92" width="4" height="4" fill="#7a4a22"/><rect x="594" y="96" width="4" height="4" fill="#7a4a22"/><rect x="594" y="100" width="4" height="4" fill="#7a4a22"/><rect x="586" y="104" width="28" height="4" fill="#e8c77a"/><rect x="582" y="108" width="36" height="4" fill="#e8c77a"/><rect x="487" y="150" width="226" height="26" fill="#f3e2b3"/><rect x="487" y="172" width="226" height="4" fill="#c9a66b"/><rect x="493" y="156" width="2" height="2" fill="#4a2c14"/><rect x="501" y="156" width="2" height="2" fill="#4a2c14"/><rect x="493" y="158" width="4" height="2" fill="#4a2c14"/><rect x="499" y="158" width="4" height="2" fill="#4a2c14"/><rect x="493" y="160" width="2" height="2" fill="#4a2c14"/><rect x="497" y="160" width="2" height="2" fill="#4a2c14"/><rect x="501" y="160" width="2" height="2" fill="#4a2c14"/><rect x="493" y="162" width="2" height="2" fill="#4a2c14"/><rect x="497" y="162" width="2" height="2" fill="#4a2c14"/><rect x="501" y="162" width="2" height="2" fill="#4a2c14"/><rect x="493" y="164" width="2" height="2" fill="#4a2c14"/><rect x="501" y="164" width="2" height="2" fill="#4a2c14"/><rect x="493" y="166" width="2" height="2" fill="#4a2c14"/><rect x="501" y="166" width="2" height="2" fill="#4a2c14"/><rect x="493" y="168" width="2" height="2" fill="#4a2c14"/><rect x="501" y="168" width="2" height="2" fill="#4a2c14"/><rect x="507" y="156" width="6" height="2" fill="#4a2c14"/><rect x="505" y="158" width="2" height="2" fill="#4a2c14"/><rect x="513" y="158" width="2" height="2" fill="#4a2c14"/><rect x="505" y="160" width="2" height="2" fill="#4a2c14"/><rect x="513" y="160" width="2" height="2" fill="#4a2c14"/><rect x="505" y="162" width="2" height="2" fill="#4a2c14"/><rect x="513" y="162" width="2" height="2" fill="#4a2c14"/><rect x="505" y="164" width="2" height="2" fill="#4a2c14"/><rect x="513" y="164" width="2" height="2" fill="#4a2c14"/><rect x="505" y="166" width="2" height="2" fill="#4a2c14"/><rect x="513" y="166" width="2" height="2" fill="#4a2c14"/><rect x="507" y="168" width="6" height="2" fill="#4a2c14"/><rect x="517" y="156" width="2" height="2" fill="#4a2c14"/><rect x="525" y="156" width="2" height="2" fill="#4a2c14"/><rect x="517" y="158" width="2" height="2" fill="#4a2c14"/><rect x="525" y="158" width="2" height="2" fill="#4a2c14"/><rect x="517" y="160" width="4" height="2" fill="#4a2c14"/><rect x="525" y="160" width="2" height="2" fill="#4a2c14"/><rect x="517" y="162" width="2" height="2" fill="#4a2c14"/><rect x="521" y="162" width="2" height="2" fill="#4a2c14"/><rect x="525" y="162" width="2" height="2" fill="#4a2c14"/><rect x="517" y="164" width="2" height="2" fill="#4a2c14"/><rect x="523" y="164" width="4" height="2" fill="#4a2c14"/><rect x="517" y="166" width="2" height="2" fill="#4a2c14"/><rect x="525" y="166" width="2" height="2" fill="#4a2c14"/><rect x="517" y="168" width="2" height="2" fill="#4a2c14"/><rect x="525" y="168" width="2" height="2" fill="#4a2c14"/><rect x="531" y="156" width="6" height="2" fill="#4a2c14"/><rect x="533" y="158" width="2" height="2" fill="#4a2c14"/><rect x="533" y="160" width="2" height="2" fill="#4a2c14"/><rect x="533" y="162" width="2" height="2" fill="#4a2c14"/><rect x="533" y="164" width="2" height="2" fill="#4a2c14"/><rect x="533" y="166" width="2" height="2" fill="#4a2c14"/><rect x="531" y="168" width="6" height="2" fill="#4a2c14"/><rect x="541" y="156" width="10" height="2" fill="#4a2c14"/><rect x="545" y="158" width="2" height="2" fill="#4a2c14"/><rect x="545" y="160" width="2" height="2" fill="#4a2c14"/><rect x="545" y="162" width="2" height="2" fill="#4a2c14"/><rect x="545" y="164" width="2" height="2" fill="#4a2c14"/><rect x="545" y="166" width="2" height="2" fill="#4a2c14"/><rect x="545" y="168" width="2" height="2" fill="#4a2c14"/><rect x="555" y="156" width="6" height="2" fill="#4a2c14"/><rect x="553" y="158" width="2" height="2" fill="#4a2c14"/><rect x="561" y="158" width="2" height="2" fill="#4a2c14"/><rect x="553" y="160" width="2" height="2" fill="#4a2c14"/><rect x="561" y="160" width="2" height="2" fill="#4a2c14"/><rect x="553" y="162" width="2" height="2" fill="#4a2c14"/><rect x="561" y="162" width="2" height="2" fill="#4a2c14"/><rect x="553" y="164" width="2" height="2" fill="#4a2c14"/><rect x="561" y="164" width="2" height="2" fill="#4a2c14"/><rect x="553" y="166" width="2" height="2" fill="#4a2c14"/><rect x="561" y="166" width="2" height="2" fill="#4a2c14"/><rect x="555" y="168" width="6" height="2" fill="#4a2c14"/><rect x="565" y="156" width="8" height="2" fill="#4a2c14"/><rect x="565" y="158" width="2" height="2" fill="#4a2c14"/><rect x="573" y="158" width="2" height="2" fill="#4a2c14"/><rect x="565" y="160" width="2" height="2" fill="#4a2c14"/><rect x="573" y="160" width="2" height="2" fill="#4a2c14"/><rect x="565" y="162" width="8" height="2" fill="#4a2c14"/><rect x="565" y="164" width="2" height="2" fill="#4a2c14"/><rect x="569" y="164" width="2" height="2" fill="#4a2c14"/><rect x="565" y="166" width="2" height="2" fill="#4a2c14"/><rect x="571" y="166" width="2" height="2" fill="#4a2c14"/><rect x="565" y="168" width="2" height="2" fill="#4a2c14"/><rect x="573" y="168" width="2" height="2" fill="#4a2c14"/><rect x="591" y="156" width="6" height="2" fill="#4a2c14"/><rect x="589" y="158" width="2" height="2" fill="#4a2c14"/><rect x="597" y="158" width="2" height="2" fill="#4a2c14"/><rect x="589" y="160" width="2" height="2" fill="#4a2c14"/><rect x="589" y="162" width="2" height="2" fill="#4a2c14"/><rect x="589" y="164" width="2" height="2" fill="#4a2c14"/><rect x="589" y="166" width="2" height="2" fill="#4a2c14"/><rect x="597" y="166" width="2" height="2" fill="#4a2c14"/><rect x="591" y="168" width="6" height="2" fill="#4a2c14"/><rect x="603" y="156" width="6" height="2" fill="#4a2c14"/><rect x="601" y="158" width="2" height="2" fill="#4a2c14"/><rect x="609" y="158" width="2" height="2" fill="#4a2c14"/><rect x="601" y="160" width="2" height="2" fill="#4a2c14"/><rect x="609" y="160" width="2" height="2" fill="#4a2c14"/><rect x="601" y="162" width="2" height="2" fill="#4a2c14"/><rect x="609" y="162" width="2" height="2" fill="#4a2c14"/><rect x="601" y="164" width="2" height="2" fill="#4a2c14"/><rect x="609" y="164" width="2" height="2" fill="#4a2c14"/><rect x="601" y="166" width="2" height="2" fill="#4a2c14"/><rect x="609" y="166" width="2" height="2" fill="#4a2c14"/><rect x="603" y="168" width="6" height="2" fill="#4a2c14"/><rect x="613" y="156" width="2" height="2" fill="#4a2c14"/><rect x="621" y="156" width="2" height="2" fill="#4a2c14"/><rect x="613" y="158" width="2" height="2" fill="#4a2c14"/><rect x="621" y="158" width="2" height="2" fill="#4a2c14"/><rect x="613" y="160" width="4" height="2" fill="#4a2c14"/><rect x="621" y="160" width="2" height="2" fill="#4a2c14"/><rect x="613" y="162" width="2" height="2" fill="#4a2c14"/><rect x="617" y="162" width="2" height="2" fill="#4a2c14"/><rect x="621" y="162" width="2" height="2" fill="#4a2c14"/><rect x="613" y="164" width="2" height="2" fill="#4a2c14"/><rect x="619" y="164" width="4" height="2" fill="#4a2c14"/><rect x="613" y="166" width="2" height="2" fill="#4a2c14"/><rect x="621" y="166" width="2" height="2" fill="#4a2c14"/><rect x="613" y="168" width="2" height="2" fill="#4a2c14"/><rect x="621" y="168" width="2" height="2" fill="#4a2c14"/><rect x="627" y="156" width="6" height="2" fill="#4a2c14"/><rect x="625" y="158" width="2" height="2" fill="#4a2c14"/><rect x="633" y="158" width="2" height="2" fill="#4a2c14"/><rect x="625" y="160" width="2" height="2" fill="#4a2c14"/><rect x="625" y="162" width="2" height="2" fill="#4a2c14"/><rect x="625" y="164" width="2" height="2" fill="#4a2c14"/><rect x="625" y="166" width="2" height="2" fill="#4a2c14"/><rect x="633" y="166" width="2" height="2" fill="#4a2c14"/><rect x="627" y="168" width="6" height="2" fill="#4a2c14"/><rect x="637" y="156" width="10" height="2" fill="#4a2c14"/><rect x="637" y="158" width="2" height="2" fill="#4a2c14"/><rect x="637" y="160" width="2" height="2" fill="#4a2c14"/><rect x="637" y="162" width="8" height="2" fill="#4a2c14"/><rect x="637" y="164" width="2" height="2" fill="#4a2c14"/><rect x="637" y="166" width="2" height="2" fill="#4a2c14"/><rect x="637" y="168" width="10" height="2" fill="#4a2c14"/><rect x="649" y="156" width="8" height="2" fill="#4a2c14"/><rect x="649" y="158" width="2" height="2" fill="#4a2c14"/><rect x="657" y="158" width="2" height="2" fill="#4a2c14"/><rect x="649" y="160" width="2" height="2" fill="#4a2c14"/><rect x="657" y="160" width="2" height="2" fill="#4a2c14"/><rect x="649" y="162" width="8" height="2" fill="#4a2c14"/><rect x="649" y="164" width="2" height="2" fill="#4a2c14"/><rect x="649" y="166" width="2" height="2" fill="#4a2c14"/><rect x="649" y="168" width="2" height="2" fill="#4a2c14"/><rect x="663" y="156" width="6" height="2" fill="#4a2c14"/><rect x="661" y="158" width="2" height="2" fill="#4a2c14"/><rect x="669" y="158" width="2" height="2" fill="#4a2c14"/><rect x="661" y="160" width="2" height="2" fill="#4a2c14"/><rect x="661" y="162" width="2" height="2" fill="#4a2c14"/><rect x="661" y="164" width="2" height="2" fill="#4a2c14"/><rect x="661" y="166" width="2" height="2" fill="#4a2c14"/><rect x="669" y="166" width="2" height="2" fill="#4a2c14"/><rect x="663" y="168" width="6" height="2" fill="#4a2c14"/><rect x="675" y="156" width="6" height="2" fill="#4a2c14"/><rect x="677" y="158" width="2" height="2" fill="#4a2c14"/><rect x="677" y="160" width="2" height="2" fill="#4a2c14"/><rect x="677" y="162" width="2" height="2" fill="#4a2c14"/><rect x="677" y="164" width="2" height="2" fill="#4a2c14"/><rect x="677" y="166" width="2" height="2" fill="#4a2c14"/><rect x="675" y="168" width="6" height="2" fill="#4a2c14"/><rect x="687" y="156" width="6" height="2" fill="#4a2c14"/><rect x="685" y="158" width="2" height="2" fill="#4a2c14"/><rect x="693" y="158" width="2" height="2" fill="#4a2c14"/><rect x="685" y="160" width="2" height="2" fill="#4a2c14"/><rect x="693" y="160" width="2" height="2" fill="#4a2c14"/><rect x="685" y="162" width="2" height="2" fill="#4a2c14"/><rect x="693" y="162" width="2" height="2" fill="#4a2c14"/><rect x="685" y="164" width="2" height="2" fill="#4a2c14"/><rect x="693" y="164" width="2" height="2" fill="#4a2c14"/><rect x="685" y="166" width="2" height="2" fill="#4a2c14"/><rect x="693" y="166" width="2" height="2" fill="#4a2c14"/><rect x="687" y="168" width="6" height="2" fill="#4a2c14"/><rect x="689" y="152" width="2" height="2" fill="#4a2c14"/><rect x="691" y="150" width="2" height="2" fill="#4a2c14"/><rect x="697" y="156" width="2" height="2" fill="#4a2c14"/><rect x="705" y="156" width="2" height="2" fill="#4a2c14"/><rect x="697" y="158" width="2" height="2" fill="#4a2c14"/><rect x="705" y="158" width="2" height="2" fill="#4a2c14"/><rect x="697" y="160" width="4" height="2" fill="#4a2c14"/><rect x="705" y="160" width="2" height="2" fill="#4a2c14"/><rect x="697" y="162" width="2" height="2" fill="#4a2c14"/><rect x="701" y="162" width="2" height="2" fill="#4a2c14"/><rect x="705" y="162" width="2" height="2" fill="#4a2c14"/><rect x="697" y="164" width="2" height="2" fill="#4a2c14"/><rect x="703" y="164" width="4" height="2" fill="#4a2c14"/><rect x="697" y="166" width="2" height="2" fill="#4a2c14"/><rect x="705" y="166" width="2" height="2" fill="#4a2c14"/><rect x="697" y="168" width="2" height="2" fill="#4a2c14"/><rect x="705" y="168" width="2" height="2" fill="#4a2c14"/><g class="blink"><rect x="640" y="104" width="4" height="4" fill="#5e3b1c"/><rect x="656" y="104" width="4" height="4" fill="#5e3b1c"/><rect x="640" y="108" width="4" height="4" fill="#5e3b1c"/><rect x="656" y="108" width="4" height="4" fill="#5e3b1c"/><rect x="644" y="112" width="4" height="4" fill="#5e3b1c"/><rect x="652" y="112" width="4" height="4" fill="#5e3b1c"/><rect x="648" y="116" width="4" height="4" fill="#5e3b1c"/><rect x="644" y="120" width="4" height="4" fill="#5e3b1c"/><rect x="652" y="120" width="4" height="4" fill="#5e3b1c"/><rect x="640" y="124" width="4" height="4" fill="#5e3b1c"/><rect x="656" y="124" width="4" height="4" fill="#5e3b1c"/><rect x="640" y="128" width="4" height="4" fill="#5e3b1c"/><rect x="656" y="128" width="4" height="4" fill="#5e3b1c"/><rect x="636" y="100" width="4" height="4" fill="#d64545"/><rect x="652" y="100" width="4" height="4" fill="#d64545"/><rect x="636" y="104" width="4" height="4" fill="#d64545"/><rect x="652" y="104" width="4" height="4" fill="#d64545"/><rect x="640" y="108" width="4" height="4" fill="#d64545"/><rect x="648" y="108" width="4" height="4" fill="#d64545"/><rect x="644" y="112" width="4" height="4" fill="#d64545"/><rect x="640" y="116" width="4" height="4" fill="#d64545"/><rect x="648" y="116" width="4" height="4" fill="#d64545"/><rect x="636" y="120" width="4" height="4" fill="#d64545"/><rect x="652" y="120" width="4" height="4" fill="#d64545"/><rect x="636" y="124" width="4" height="4" fill="#d64545"/><rect x="652" y="124" width="4" height="4" fill="#d64545"/></g><rect x="896" y="214" width="2" height="2" fill="#fff6d5"/><rect x="904" y="214" width="2" height="2" fill="#fff6d5"/><rect x="896" y="216" width="2" height="2" fill="#fff6d5"/><rect x="904" y="216" width="2" height="2" fill="#fff6d5"/><rect x="896" y="218" width="4" height="2" fill="#fff6d5"/><rect x="904" y="218" width="2" height="2" fill="#fff6d5"/><rect x="896" y="220" width="2" height="2" fill="#fff6d5"/><rect x="900" y="220" width="2" height="2" fill="#fff6d5"/><rect x="904" y="220" width="2" height="2" fill="#fff6d5"/><rect x="896" y="222" width="2" height="2" fill="#fff6d5"/><rect x="902" y="222" width="4" height="2" fill="#fff6d5"/><rect x="896" y="224" width="2" height="2" fill="#fff6d5"/><rect x="904" y="224" width="2" height="2" fill="#fff6d5"/><rect x="896" y="226" width="2" height="2" fill="#fff6d5"/><rect x="904" y="226" width="2" height="2" fill="#fff6d5"/><rect x="900" y="232" width="4" height="36" fill="#fff6d5"/><rect x="884" y="248" width="36" height="4" fill="#fff6d5"/><rect x="896" y="244" width="12" height="12" fill="#d64545"/><rect x="26" y="270" width="8" height="2" fill="#0e324f"/><rect x="26" y="272" width="2" height="2" fill="#0e324f"/><rect x="34" y="272" width="2" height="2" fill="#0e324f"/><rect x="26" y="274" width="2" height="2" fill="#0e324f"/><rect x="34" y="274" width="2" height="2" fill="#0e324f"/><rect x="26" y="276" width="8" height="2" fill="#0e324f"/><rect x="26" y="278" width="2" height="2" fill="#0e324f"/><rect x="30" y="278" width="2" height="2" fill="#0e324f"/><rect x="26" y="280" width="2" height="2" fill="#0e324f"/><rect x="32" y="280" width="2" height="2" fill="#0e324f"/><rect x="26" y="282" width="2" height="2" fill="#0e324f"/><rect x="34" y="282" width="2" height="2" fill="#0e324f"/><rect x="38" y="270" width="2" height="2" fill="#0e324f"/><rect x="46" y="270" width="2" height="2" fill="#0e324f"/><rect x="38" y="272" width="2" height="2" fill="#0e324f"/><rect x="46" y="272" width="2" height="2" fill="#0e324f"/><rect x="38" y="274" width="2" height="2" fill="#0e324f"/><rect x="46" y="274" width="2" height="2" fill="#0e324f"/><rect x="38" y="276" width="2" height="2" fill="#0e324f"/><rect x="46" y="276" width="2" height="2" fill="#0e324f"/><rect x="38" y="278" width="2" height="2" fill="#0e324f"/><rect x="46" y="278" width="2" height="2" fill="#0e324f"/><rect x="38" y="280" width="2" height="2" fill="#0e324f"/><rect x="46" y="280" width="2" height="2" fill="#0e324f"/><rect x="40" y="282" width="6" height="2" fill="#0e324f"/><rect x="50" y="270" width="10" height="2" fill="#0e324f"/><rect x="54" y="272" width="2" height="2" fill="#0e324f"/><rect x="54" y="274" width="2" height="2" fill="#0e324f"/><rect x="54" y="276" width="2" height="2" fill="#0e324f"/><rect x="54" y="278" width="2" height="2" fill="#0e324f"/><rect x="54" y="280" width="2" height="2" fill="#0e324f"/><rect x="54" y="282" width="2" height="2" fill="#0e324f"/><rect x="64" y="270" width="6" height="2" fill="#0e324f"/><rect x="62" y="272" width="2" height="2" fill="#0e324f"/><rect x="70" y="272" width="2" height="2" fill="#0e324f"/><rect x="62" y="274" width="2" height="2" fill="#0e324f"/><rect x="70" y="274" width="2" height="2" fill="#0e324f"/><rect x="62" y="276" width="10" height="2" fill="#0e324f"/><rect x="62" y="278" width="2" height="2" fill="#0e324f"/><rect x="70" y="278" width="2" height="2" fill="#0e324f"/><rect x="62" y="280" width="2" height="2" fill="#0e324f"/><rect x="70" y="280" width="2" height="2" fill="#0e324f"/><rect x="62" y="282" width="2" height="2" fill="#0e324f"/><rect x="70" y="282" width="2" height="2" fill="#0e324f"/><rect x="86" y="270" width="8" height="2" fill="#0e324f"/><rect x="86" y="272" width="2" height="2" fill="#0e324f"/><rect x="94" y="272" width="2" height="2" fill="#0e324f"/><rect x="86" y="274" width="2" height="2" fill="#0e324f"/><rect x="94" y="274" width="2" height="2" fill="#0e324f"/><rect x="86" y="276" width="2" height="2" fill="#0e324f"/><rect x="94" y="276" width="2" height="2" fill="#0e324f"/><rect x="86" y="278" width="2" height="2" fill="#0e324f"/><rect x="94" y="278" width="2" height="2" fill="#0e324f"/><rect x="86" y="280" width="2" height="2" fill="#0e324f"/><rect x="94" y="280" width="2" height="2" fill="#0e324f"/><rect x="86" y="282" width="8" height="2" fill="#0e324f"/><rect x="98" y="270" width="10" height="2" fill="#0e324f"/><rect x="98" y="272" width="2" height="2" fill="#0e324f"/><rect x="98" y="274" width="2" height="2" fill="#0e324f"/><rect x="98" y="276" width="8" height="2" fill="#0e324f"/><rect x="98" y="278" width="2" height="2" fill="#0e324f"/><rect x="98" y="280" width="2" height="2" fill="#0e324f"/><rect x="98" y="282" width="10" height="2" fill="#0e324f"/><rect x="122" y="270" width="8" height="2" fill="#0e324f"/><rect x="122" y="272" width="2" height="2" fill="#0e324f"/><rect x="130" y="272" width="2" height="2" fill="#0e324f"/><rect x="122" y="274" width="2" height="2" fill="#0e324f"/><rect x="130" y="274" width="2" height="2" fill="#0e324f"/><rect x="122" y="276" width="8" height="2" fill="#0e324f"/><rect x="122" y="278" width="2" height="2" fill="#0e324f"/><rect x="122" y="280" width="2" height="2" fill="#0e324f"/><rect x="122" y="282" width="2" height="2" fill="#0e324f"/><rect x="134" y="270" width="8" height="2" fill="#0e324f"/><rect x="134" y="272" width="2" height="2" fill="#0e324f"/><rect x="142" y="272" width="2" height="2" fill="#0e324f"/><rect x="134" y="274" width="2" height="2" fill="#0e324f"/><rect x="142" y="274" width="2" height="2" fill="#0e324f"/><rect x="134" y="276" width="8" height="2" fill="#0e324f"/><rect x="134" y="278" width="2" height="2" fill="#0e324f"/><rect x="138" y="278" width="2" height="2" fill="#0e324f"/><rect x="134" y="280" width="2" height="2" fill="#0e324f"/><rect x="140" y="280" width="2" height="2" fill="#0e324f"/><rect x="134" y="282" width="2" height="2" fill="#0e324f"/><rect x="142" y="282" width="2" height="2" fill="#0e324f"/><rect x="148" y="270" width="6" height="2" fill="#0e324f"/><rect x="146" y="272" width="2" height="2" fill="#0e324f"/><rect x="154" y="272" width="2" height="2" fill="#0e324f"/><rect x="146" y="274" width="2" height="2" fill="#0e324f"/><rect x="154" y="274" width="2" height="2" fill="#0e324f"/><rect x="146" y="276" width="2" height="2" fill="#0e324f"/><rect x="154" y="276" width="2" height="2" fill="#0e324f"/><rect x="146" y="278" width="2" height="2" fill="#0e324f"/><rect x="154" y="278" width="2" height="2" fill="#0e324f"/><rect x="146" y="280" width="2" height="2" fill="#0e324f"/><rect x="154" y="280" width="2" height="2" fill="#0e324f"/><rect x="148" y="282" width="6" height="2" fill="#0e324f"/><rect x="158" y="270" width="2" height="2" fill="#0e324f"/><rect x="166" y="270" width="2" height="2" fill="#0e324f"/><rect x="158" y="272" width="2" height="2" fill="#0e324f"/><rect x="166" y="272" width="2" height="2" fill="#0e324f"/><rect x="160" y="274" width="2" height="2" fill="#0e324f"/><rect x="164" y="274" width="2" height="2" fill="#0e324f"/><rect x="162" y="276" width="2" height="2" fill="#0e324f"/><rect x="162" y="278" width="2" height="2" fill="#0e324f"/><rect x="162" y="280" width="2" height="2" fill="#0e324f"/><rect x="162" y="282" width="2" height="2" fill="#0e324f"/><rect x="170" y="270" width="10" height="2" fill="#0e324f"/><rect x="170" y="272" width="2" height="2" fill="#0e324f"/><rect x="170" y="274" width="2" height="2" fill="#0e324f"/><rect x="170" y="276" width="8" height="2" fill="#0e324f"/><rect x="170" y="278" width="2" height="2" fill="#0e324f"/><rect x="170" y="280" width="2" height="2" fill="#0e324f"/><rect x="170" y="282" width="10" height="2" fill="#0e324f"/><rect x="184" y="270" width="6" height="2" fill="#0e324f"/><rect x="182" y="272" width="2" height="2" fill="#0e324f"/><rect x="190" y="272" width="2" height="2" fill="#0e324f"/><rect x="182" y="274" width="2" height="2" fill="#0e324f"/><rect x="182" y="276" width="2" height="2" fill="#0e324f"/><rect x="182" y="278" width="2" height="2" fill="#0e324f"/><rect x="182" y="280" width="2" height="2" fill="#0e324f"/><rect x="190" y="280" width="2" height="2" fill="#0e324f"/><rect x="184" y="282" width="6" height="2" fill="#0e324f"/><rect x="194" y="270" width="10" height="2" fill="#0e324f"/><rect x="198" y="272" width="2" height="2" fill="#0e324f"/><rect x="198" y="274" width="2" height="2" fill="#0e324f"/><rect x="198" y="276" width="2" height="2" fill="#0e324f"/><rect x="198" y="278" width="2" height="2" fill="#0e324f"/><rect x="198" y="280" width="2" height="2" fill="#0e324f"/><rect x="198" y="282" width="2" height="2" fill="#0e324f"/><rect x="208" y="270" width="6" height="2" fill="#0e324f"/><rect x="206" y="272" width="2" height="2" fill="#0e324f"/><rect x="214" y="272" width="2" height="2" fill="#0e324f"/><rect x="206" y="274" width="2" height="2" fill="#0e324f"/><rect x="214" y="274" width="2" height="2" fill="#0e324f"/><rect x="206" y="276" width="2" height="2" fill="#0e324f"/><rect x="214" y="276" width="2" height="2" fill="#0e324f"/><rect x="206" y="278" width="2" height="2" fill="#0e324f"/><rect x="214" y="278" width="2" height="2" fill="#0e324f"/><rect x="206" y="280" width="2" height="2" fill="#0e324f"/><rect x="214" y="280" width="2" height="2" fill="#0e324f"/><rect x="208" y="282" width="6" height="2" fill="#0e324f"/><rect x="220" y="270" width="8" height="2" fill="#0e324f"/><rect x="218" y="272" width="2" height="2" fill="#0e324f"/><rect x="218" y="274" width="2" height="2" fill="#0e324f"/><rect x="220" y="276" width="6" height="2" fill="#0e324f"/><rect x="226" y="278" width="2" height="2" fill="#0e324f"/><rect x="226" y="280" width="2" height="2" fill="#0e324f"/><rect x="218" y="282" width="8" height="2" fill="#0e324f"/><rect x="24" y="268" width="8" height="2" fill="#fff6d5"/><rect x="24" y="270" width="2" height="2" fill="#fff6d5"/><rect x="32" y="270" width="2" height="2" fill="#fff6d5"/><rect x="24" y="272" width="2" height="2" fill="#fff6d5"/><rect x="32" y="272" width="2" height="2" fill="#fff6d5"/><rect x="24" y="274" width="8" height="2" fill="#fff6d5"/><rect x="24" y="276" width="2" height="2" fill="#fff6d5"/><rect x="28" y="276" width="2" height="2" fill="#fff6d5"/><rect x="24" y="278" width="2" height="2" fill="#fff6d5"/><rect x="30" y="278" width="2" height="2" fill="#fff6d5"/><rect x="24" y="280" width="2" height="2" fill="#fff6d5"/><rect x="32" y="280" width="2" height="2" fill="#fff6d5"/><rect x="36" y="268" width="2" height="2" fill="#fff6d5"/><rect x="44" y="268" width="2" height="2" fill="#fff6d5"/><rect x="36" y="270" width="2" height="2" fill="#fff6d5"/><rect x="44" y="270" width="2" height="2" fill="#fff6d5"/><rect x="36" y="272" width="2" height="2" fill="#fff6d5"/><rect x="44" y="272" width="2" height="2" fill="#fff6d5"/><rect x="36" y="274" width="2" height="2" fill="#fff6d5"/><rect x="44" y="274" width="2" height="2" fill="#fff6d5"/><rect x="36" y="276" width="2" height="2" fill="#fff6d5"/><rect x="44" y="276" width="2" height="2" fill="#fff6d5"/><rect x="36" y="278" width="2" height="2" fill="#fff6d5"/><rect x="44" y="278" width="2" height="2" fill="#fff6d5"/><rect x="38" y="280" width="6" height="2" fill="#fff6d5"/><rect x="48" y="268" width="10" height="2" fill="#fff6d5"/><rect x="52" y="270" width="2" height="2" fill="#fff6d5"/><rect x="52" y="272" width="2" height="2" fill="#fff6d5"/><rect x="52" y="274" width="2" height="2" fill="#fff6d5"/><rect x="52" y="276" width="2" height="2" fill="#fff6d5"/><rect x="52" y="278" width="2" height="2" fill="#fff6d5"/><rect x="52" y="280" width="2" height="2" fill="#fff6d5"/><rect x="62" y="268" width="6" height="2" fill="#fff6d5"/><rect x="60" y="270" width="2" height="2" fill="#fff6d5"/><rect x="68" y="270" width="2" height="2" fill="#fff6d5"/><rect x="60" y="272" width="2" height="2" fill="#fff6d5"/><rect x="68" y="272" width="2" height="2" fill="#fff6d5"/><rect x="60" y="274" width="10" height="2" fill="#fff6d5"/><rect x="60" y="276" width="2" height="2" fill="#fff6d5"/><rect x="68" y="276" width="2" height="2" fill="#fff6d5"/><rect x="60" y="278" width="2" height="2" fill="#fff6d5"/><rect x="68" y="278" width="2" height="2" fill="#fff6d5"/><rect x="60" y="280" width="2" height="2" fill="#fff6d5"/><rect x="68" y="280" width="2" height="2" fill="#fff6d5"/><rect x="84" y="268" width="8" height="2" fill="#fff6d5"/><rect x="84" y="270" width="2" height="2" fill="#fff6d5"/><rect x="92" y="270" width="2" height="2" fill="#fff6d5"/><rect x="84" y="272" width="2" height="2" fill="#fff6d5"/><rect x="92" y="272" width="2" height="2" fill="#fff6d5"/><rect x="84" y="274" width="2" height="2" fill="#fff6d5"/><rect x="92" y="274" width="2" height="2" fill="#fff6d5"/><rect x="84" y="276" width="2" height="2" fill="#fff6d5"/><rect x="92" y="276" width="2" height="2" fill="#fff6d5"/><rect x="84" y="278" width="2" height="2" fill="#fff6d5"/><rect x="92" y="278" width="2" height="2" fill="#fff6d5"/><rect x="84" y="280" width="8" height="2" fill="#fff6d5"/><rect x="96" y="268" width="10" height="2" fill="#fff6d5"/><rect x="96" y="270" width="2" height="2" fill="#fff6d5"/><rect x="96" y="272" width="2" height="2" fill="#fff6d5"/><rect x="96" y="274" width="8" height="2" fill="#fff6d5"/><rect x="96" y="276" width="2" height="2" fill="#fff6d5"/><rect x="96" y="278" width="2" height="2" fill="#fff6d5"/><rect x="96" y="280" width="10" height="2" fill="#fff6d5"/><rect x="120" y="268" width="8" height="2" fill="#fff6d5"/><rect x="120" y="270" width="2" height="2" fill="#fff6d5"/><rect x="128" y="270" width="2" height="2" fill="#fff6d5"/><rect x="120" y="272" width="2" height="2" fill="#fff6d5"/><rect x="128" y="272" width="2" height="2" fill="#fff6d5"/><rect x="120" y="274" width="8" height="2" fill="#fff6d5"/><rect x="120" y="276" width="2" height="2" fill="#fff6d5"/><rect x="120" y="278" width="2" height="2" fill="#fff6d5"/><rect x="120" y="280" width="2" height="2" fill="#fff6d5"/><rect x="132" y="268" width="8" height="2" fill="#fff6d5"/><rect x="132" y="270" width="2" height="2" fill="#fff6d5"/><rect x="140" y="270" width="2" height="2" fill="#fff6d5"/><rect x="132" y="272" width="2" height="2" fill="#fff6d5"/><rect x="140" y="272" width="2" height="2" fill="#fff6d5"/><rect x="132" y="274" width="8" height="2" fill="#fff6d5"/><rect x="132" y="276" width="2" height="2" fill="#fff6d5"/><rect x="136" y="276" width="2" height="2" fill="#fff6d5"/><rect x="132" y="278" width="2" height="2" fill="#fff6d5"/><rect x="138" y="278" width="2" height="2" fill="#fff6d5"/><rect x="132" y="280" width="2" height="2" fill="#fff6d5"/><rect x="140" y="280" width="2" height="2" fill="#fff6d5"/><rect x="146" y="268" width="6" height="2" fill="#fff6d5"/><rect x="144" y="270" width="2" height="2" fill="#fff6d5"/><rect x="152" y="270" width="2" height="2" fill="#fff6d5"/><rect x="144" y="272" width="2" height="2" fill="#fff6d5"/><rect x="152" y="272" width="2" height="2" fill="#fff6d5"/><rect x="144" y="274" width="2" height="2" fill="#fff6d5"/><rect x="152" y="274" width="2" height="2" fill="#fff6d5"/><rect x="144" y="276" width="2" height="2" fill="#fff6d5"/><rect x="152" y="276" width="2" height="2" fill="#fff6d5"/><rect x="144" y="278" width="2" height="2" fill="#fff6d5"/><rect x="152" y="278" width="2" height="2" fill="#fff6d5"/><rect x="146" y="280" width="6" height="2" fill="#fff6d5"/><rect x="156" y="268" width="2" height="2" fill="#fff6d5"/><rect x="164" y="268" width="2" height="2" fill="#fff6d5"/><rect x="156" y="270" width="2" height="2" fill="#fff6d5"/><rect x="164" y="270" width="2" height="2" fill="#fff6d5"/><rect x="158" y="272" width="2" height="2" fill="#fff6d5"/><rect x="162" y="272" width="2" height="2" fill="#fff6d5"/><rect x="160" y="274" width="2" height="2" fill="#fff6d5"/><rect x="160" y="276" width="2" height="2" fill="#fff6d5"/><rect x="160" y="278" width="2" height="2" fill="#fff6d5"/><rect x="160" y="280" width="2" height="2" fill="#fff6d5"/><rect x="168" y="268" width="10" height="2" fill="#fff6d5"/><rect x="168" y="270" width="2" height="2" fill="#fff6d5"/><rect x="168" y="272" width="2" height="2" fill="#fff6d5"/><rect x="168" y="274" width="8" height="2" fill="#fff6d5"/><rect x="168" y="276" width="2" height="2" fill="#fff6d5"/><rect x="168" y="278" width="2" height="2" fill="#fff6d5"/><rect x="168" y="280" width="10" height="2" fill="#fff6d5"/><rect x="182" y="268" width="6" height="2" fill="#fff6d5"/><rect x="180" y="270" width="2" height="2" fill="#fff6d5"/><rect x="188" y="270" width="2" height="2" fill="#fff6d5"/><rect x="180" y="272" width="2" height="2" fill="#fff6d5"/><rect x="180" y="274" width="2" height="2" fill="#fff6d5"/><rect x="180" y="276" width="2" height="2" fill="#fff6d5"/><rect x="180" y="278" width="2" height="2" fill="#fff6d5"/><rect x="188" y="278" width="2" height="2" fill="#fff6d5"/><rect x="182" y="280" width="6" height="2" fill="#fff6d5"/><rect x="192" y="268" width="10" height="2" fill="#fff6d5"/><rect x="196" y="270" width="2" height="2" fill="#fff6d5"/><rect x="196" y="272" width="2" height="2" fill="#fff6d5"/><rect x="196" y="274" width="2" height="2" fill="#fff6d5"/><rect x="196" y="276" width="2" height="2" fill="#fff6d5"/><rect x="196" y="278" width="2" height="2" fill="#fff6d5"/><rect x="196" y="280" width="2" height="2" fill="#fff6d5"/><rect x="206" y="268" width="6" height="2" fill="#fff6d5"/><rect x="204" y="270" width="2" height="2" fill="#fff6d5"/><rect x="212" y="270" width="2" height="2" fill="#fff6d5"/><rect x="204" y="272" width="2" height="2" fill="#fff6d5"/><rect x="212" y="272" width="2" height="2" fill="#fff6d5"/><rect x="204" y="274" width="2" height="2" fill="#fff6d5"/><rect x="212" y="274" width="2" height="2" fill="#fff6d5"/><rect x="204" y="276" width="2" height="2" fill="#fff6d5"/><rect x="212" y="276" width="2" height="2" fill="#fff6d5"/><rect x="204" y="278" width="2" height="2" fill="#fff6d5"/><rect x="212" y="278" width="2" height="2" fill="#fff6d5"/><rect x="206" y="280" width="6" height="2" fill="#fff6d5"/><rect x="218" y="268" width="8" height="2" fill="#fff6d5"/><rect x="216" y="270" width="2" height="2" fill="#fff6d5"/><rect x="216" y="272" width="2" height="2" fill="#fff6d5"/><rect x="218" y="274" width="6" height="2" fill="#fff6d5"/><rect x="224" y="276" width="2" height="2" fill="#fff6d5"/><rect x="224" y="278" width="2" height="2" fill="#fff6d5"/><rect x="216" y="280" width="8" height="2" fill="#fff6d5"/><g><rect x="-2" y="-44" width="2" height="2" fill="#6b4423"/><rect x="-2" y="-42" width="2" height="2" fill="#6b4423"/><rect x="-2" y="-40" width="2" height="2" fill="#6b4423"/><rect x="-2" y="-16" width="2" height="2" fill="#6b4423"/><rect x="-2" y="-14" width="2" height="2" fill="#6b4423"/><rect x="-2" y="-12" width="2" height="2" fill="#6b4423"/><rect x="-2" y="-10" width="2" height="2" fill="#6b4423"/><rect x="-22" y="-2" width="2" height="2" fill="#6b4423"/><rect x="-14" y="-2" width="2" height="2" fill="#6b4423"/><rect x="-6" y="-2" width="2" height="2" fill="#6b4423"/><rect x="2" y="-2" width="2" height="2" fill="#6b4423"/><rect x="10" y="-2" width="2" height="2" fill="#6b4423"/><rect x="18" y="-2" width="2" height="2" fill="#6b4423"/><rect x="-26" y="0" width="54" height="2" fill="#6b4423"/><rect x="0" y="-44" width="10" height="2" fill="#d64545"/><rect x="0" y="-42" width="8" height="2" fill="#d64545"/><rect x="-18" y="-38" width="34" height="2" fill="#2b1a10"/><rect x="-20" y="-36" width="2" height="2" fill="#2b1a10"/><rect x="16" y="-36" width="2" height="2" fill="#2b1a10"/><rect x="-20" y="-34" width="2" height="2" fill="#2b1a10"/><rect x="16" y="-34" width="2" height="2" fill="#2b1a10"/><rect x="-20" y="-32" width="2" height="2" fill="#2b1a10"/><rect x="16" y="-32" width="2" height="2" fill="#2b1a10"/><rect x="-20" y="-30" width="2" height="2" fill="#2b1a10"/><rect x="16" y="-30" width="2" height="2" fill="#2b1a10"/><rect x="-20" y="-28" width="2" height="2" fill="#2b1a10"/><rect x="16" y="-28" width="2" height="2" fill="#2b1a10"/><rect x="-20" y="-26" width="2" height="2" fill="#2b1a10"/><rect x="16" y="-26" width="2" height="2" fill="#2b1a10"/><rect x="-20" y="-24" width="2" height="2" fill="#2b1a10"/><rect x="16" y="-24" width="2" height="2" fill="#2b1a10"/><rect x="-20" y="-22" width="2" height="2" fill="#2b1a10"/><rect x="16" y="-22" width="2" height="2" fill="#2b1a10"/><rect x="-20" y="-20" width="2" height="2" fill="#2b1a10"/><rect x="16" y="-20" width="2" height="2" fill="#2b1a10"/><rect x="-18" y="-18" width="2" height="2" fill="#2b1a10"/><rect x="14" y="-18" width="2" height="2" fill="#2b1a10"/><rect x="-18" y="-16" width="16" height="2" fill="#2b1a10"/><rect x="0" y="-16" width="16" height="2" fill="#2b1a10"/><rect x="-34" y="-12" width="4" height="2" fill="#2b1a10"/><rect x="30" y="-12" width="4" height="2" fill="#2b1a10"/><rect x="-34" y="-10" width="2" height="2" fill="#2b1a10"/><rect x="-30" y="-10" width="2" height="2" fill="#2b1a10"/><rect x="28" y="-10" width="2" height="2" fill="#2b1a10"/><rect x="32" y="-10" width="2" height="2" fill="#2b1a10"/><rect x="-34" y="-8" width="2" height="2" fill="#2b1a10"/><rect x="-28" y="-8" width="56" height="2" fill="#2b1a10"/><rect x="32" y="-8" width="2" height="2" fill="#2b1a10"/><rect x="-32" y="-6" width="2" height="2" fill="#2b1a10"/><rect x="30" y="-6" width="2" height="2" fill="#2b1a10"/><rect x="-32" y="-4" width="2" height="2" fill="#2b1a10"/><rect x="30" y="-4" width="2" height="2" fill="#2b1a10"/><rect x="-30" y="-2" width="2" height="2" fill="#2b1a10"/><rect x="-24" y="-2" width="2" height="2" fill="#2b1a10"/><rect x="-16" y="-2" width="2" height="2" fill="#2b1a10"/><rect x="-8" y="-2" width="2" height="2" fill="#2b1a10"/><rect x="0" y="-2" width="2" height="2" fill="#2b1a10"/><rect x="8" y="-2" width="2" height="2" fill="#2b1a10"/><rect x="16" y="-2" width="2" height="2" fill="#2b1a10"/><rect x="28" y="-2" width="2" height="2" fill="#2b1a10"/><rect x="-28" y="0" width="2" height="2" fill="#2b1a10"/><rect x="28" y="0" width="2" height="2" fill="#2b1a10"/><rect x="-26" y="2" width="54" height="2" fill="#2b1a10"/><rect x="-18" y="-36" width="34" height="2" fill="#f6f1e3"/><rect x="-18" y="-34" width="34" height="2" fill="#f6f1e3"/><rect x="-18" y="-32" width="14" height="2" fill="#f6f1e3"/><rect x="2" y="-32" width="14" height="2" fill="#f6f1e3"/><rect x="-18" y="-30" width="12" height="2" fill="#f6f1e3"/><rect x="4" y="-30" width="12" height="2" fill="#f6f1e3"/><rect x="-18" y="-28" width="10" height="2" fill="#f6f1e3"/><rect x="6" y="-28" width="10" height="2" fill="#f6f1e3"/><rect x="-18" y="-26" width="34" height="2" fill="#f6f1e3"/><rect x="-18" y="-24" width="8" height="2" fill="#f6f1e3"/><rect x="-8" y="-24" width="6" height="2" fill="#f6f1e3"/><rect x="0" y="-24" width="6" height="2" fill="#f6f1e3"/><rect x="8" y="-24" width="8" height="2" fill="#f6f1e3"/><rect x="-18" y="-22" width="6" height="2" fill="#f6f1e3"/><rect x="-10" y="-22" width="2" height="2" fill="#f6f1e3"/><rect x="-6" y="-22" width="2" height="2" fill="#f6f1e3"/><rect x="-2" y="-22" width="2" height="2" fill="#f6f1e3"/><rect x="2" y="-22" width="2" height="2" fill="#f6f1e3"/><rect x="6" y="-22" width="2" height="2" fill="#f6f1e3"/><rect x="10" y="-22" width="6" height="2" fill="#f6f1e3"/><rect x="-18" y="-20" width="32" height="2" fill="#f6f1e3"/><rect x="-4" y="-32" width="6" height="2" fill="#3a86c8"/><rect x="-6" y="-30" width="10" height="2" fill="#3a86c8"/><rect x="-8" y="-28" width="14" height="2" fill="#3a86c8"/><rect x="-10" y="-24" width="2" height="2" fill="#3a86c8"/><rect x="-2" y="-24" width="2" height="2" fill="#3a86c8"/><rect x="6" y="-24" width="2" height="2" fill="#3a86c8"/><rect x="-12" y="-22" width="2" height="2" fill="#3a86c8"/><rect x="-8" y="-22" width="2" height="2" fill="#3a86c8"/><rect x="-4" y="-22" width="2" height="2" fill="#3a86c8"/><rect x="0" y="-22" width="2" height="2" fill="#3a86c8"/><rect x="4" y="-22" width="2" height="2" fill="#3a86c8"/><rect x="8" y="-22" width="2" height="2" fill="#3a86c8"/><rect x="14" y="-20" width="2" height="2" fill="#d9cfb6"/><rect x="-16" y="-18" width="30" height="2" fill="#d9cfb6"/><rect x="-32" y="-10" width="2" height="2" fill="#9a6333"/><rect x="30" y="-10" width="2" height="2" fill="#9a6333"/><rect x="-32" y="-8" width="4" height="2" fill="#9a6333"/><rect x="28" y="-8" width="4" height="2" fill="#9a6333"/><rect x="-30" y="-6" width="2" height="2" fill="#9a6333"/><rect x="28" y="-6" width="2" height="2" fill="#9a6333"/><rect x="-30" y="-4" width="60" height="2" fill="#9a6333"/><rect x="-28" y="-2" width="4" height="2" fill="#9a6333"/><rect x="-20" y="-2" width="4" height="2" fill="#9a6333"/><rect x="-12" y="-2" width="4" height="2" fill="#9a6333"/><rect x="-4" y="-2" width="4" height="2" fill="#9a6333"/><rect x="4" y="-2" width="4" height="2" fill="#9a6333"/><rect x="12" y="-2" width="4" height="2" fill="#9a6333"/><rect x="20" y="-2" width="8" height="2" fill="#9a6333"/><rect x="-28" y="-6" width="56" height="2" fill="#f2c14e"/><animateMotion dur="16s" repeatCount="indefinite" path="M70,230 C200,120 320,260 430,190 S540,90 590,112"/></g></svg>
